<?xml version="1.0" encoding="UTF-8" standalone="no"?>
<!-- Created with Inkscape (http://www.inkscape.org/) -->

<svg
   version="1.1"
   id="svg1"
   width="148.496"
   height="126.51333"
   viewBox="0 0 148.496 126.51333"
   xmlns="http://www.w3.org/2000/svg"
   xmlns:svg="http://www.w3.org/2000/svg">
  <defs
     id="defs1" />
  <g
     id="g1">
    <path
       id="path1"
       d="M 0,0 H 18.89757 V -18.89757 H 37.79515 V 0 h 18.8976 V 18.89757 H 75.59033 V 37.79515 H 56.69275 v 18.8976 H 37.79515 V 75.59033 H 18.89757 V 56.69275 H 0 V 37.79515 H -18.89757 V 18.89757 L 0,18.89757 V 0"
       style="fill:none;stroke:#000000;stroke-width:0.3985;stroke-linecap:butt;stroke-linejoin:miter;stroke-miterlimit:10;stroke-dasharray:none;stroke-opacity:1"
       transform="matrix(1.3333333,0,0,-1.3333333,25.462667,101.05067)" />
    <path
       id="path2"
       d="M 18.89757,0 V -18.89757 H 37.79515 V 0 H 18.89757"
       style="fill:#b8e986;fill-opacity:0.5;fill-rule:nonzero;stroke:none"
       transform="matrix(1.3333333,0,0,-1.3333333,25.462667,101.05067)" />
    <path
       id="path3"
       d="M 56.69275,18.89757 H 75.59033 V 37.79515 H 56.69275 V 18.89757"
       style="fill:#b8e986;fill-opacity:0.5;fill-rule:nonzero;stroke:none"
       transform="matrix(1.3333333,0,0,-1.3333333,25.462667,101.05067)" />
    <path
       id="path4"
       d="M 18.89757,56.69275 H 37.79515 V 75.59033 H 18.89757 V 56.69275"
       style="fill:#b8e986;fill-opacity:0.5;fill-rule:nonzero;stroke:none"
       transform="matrix(1.3333333,0,0,-1.3333333,25.462667,101.05067)" />
    <path
       id="path5"
       d="M -18.89757,18.89757 H 0 V 37.79515 H -18.89757 V 18.89757"
       style="fill:#b8e986;fill-opacity:0.5;fill-rule:nonzero;stroke:none"
       transform="matrix(1.3333333,0,0,-1.3333333,25.462667,101.05067)" />
    <g
       id="g5"
       aria-label="a&#10;/3"
       transform="matrix(1.3333333,0,0,1.3333333,105.90667,41.177333)">
      <path
         id="path6"
         d="M 2.9410938,-2.6613203 C 2.8004688,-2.8956953 2.554375,-3.0714766 2.22625,-3.0714766 c -0.890625,0 -1.8046875,0.9726563 -1.8046875,1.9804688 0,0.67968749 0.45703125,1.16015624 1.0546875,1.16015624 0.375,0 0.7148438,-0.2109375 0.9960938,-0.4921875 0.1289062,0.421875 0.5273437,0.4921875 0.7148437,0.4921875 0.2460938,0 0.421875,-0.15234375 0.5507813,-0.375 0.1523437,-0.26953125 0.2460937,-0.66796875 0.2460937,-0.69140625 0,-0.09375 -0.09375,-0.09375 -0.1171875,-0.09375 -0.09375,0 -0.1054687,0.035156 -0.1523437,0.22265623 -0.082031,0.328125 -0.2109375,0.73828125 -0.5039063,0.73828125 -0.1875,0 -0.234375,-0.15234375 -0.234375,-0.33984375 0,-0.1171875 0.058594,-0.36328125 0.1054688,-0.55078123 0.046875,-0.1875 0.1171875,-0.46875 0.1523437,-0.6210938 l 0.140625,-0.5390625 c 0.046875,-0.1757812 0.1289063,-0.5039062 0.1289063,-0.5390625 0,-0.1523437 -0.1289063,-0.2226562 -0.2460938,-0.2226562 -0.1171875,0 -0.2695312,0.082031 -0.3164062,0.28125 z m -0.4453125,1.79296874 c -0.046875,0.1875 -0.1992188,0.328125 -0.3515625,0.45703125 -0.070312,0.0585938 -0.3398438,0.28125 -0.6445313,0.28125 -0.2578125,0 -0.515625,-0.17578125 -0.515625,-0.66796875 0,-0.37500004 0.2109375,-1.13671874 0.3632813,-1.41796874 0.328125,-0.5625 0.6796875,-0.6679688 0.8789062,-0.6679688 0.4804688,0 0.6210938,0.5273438 0.6210938,0.609375 0,0.023437 -0.011719,0.082031 -0.023437,0.09375 z m 0,0"
         style="fill:#000000;fill-opacity:1;fill-rule:nonzero;stroke:none" />
      <path
         id="path7"
         d="m 7.5846484,-5.0460859 c 0.046875,-0.1289063 0.046875,-0.1757813 0.046875,-0.1875 0,-0.1054688 -0.082031,-0.1992188 -0.1992187,-0.1992188 -0.070312,0 -0.1289063,0.035156 -0.1640625,0.09375 L 3.8112109,4.1531328 c -0.046875,0.1289063 -0.046875,0.1757813 -0.046875,0.1875 0,0.1054688 0.082031,0.1992188 0.1992188,0.1992188 0.1289062,0 0.1523437,-0.070312 0.2109375,-0.2460938 z m 0,0"
         style="fill:#000000;fill-opacity:1;fill-rule:nonzero;stroke:none" />
      <path
         id="path8"
         d="m 9.5416797,-0.28827344 c 0.5507813,0 0.9375003,0.375 0.9375003,1.125 0,0.86718754 -0.5039066,1.12500004 -0.9023441,1.12500004 -0.28125,0 -0.890625,-0.082031 -1.1835937,-0.4921875 0.328125,-0.011719 0.3984375,-0.2460938 0.3984375,-0.3867188 0,-0.22265624 -0.1640625,-0.38671874 -0.3867188,-0.38671874 -0.1875,0 -0.3867187,0.1171875 -0.3867187,0.41015624 0,0.65625 0.7265625,1.078125 1.5703125,1.078125 0.9726563,0 1.6406253,-0.6445312 1.6406253,-1.34765624 0,-0.5390625 -0.445313,-1.08984375 -1.21875,-1.2421875 0.738281,-0.26953125 0.996093,-0.79687496 0.996093,-1.21874996 0,-0.5507813 -0.632812,-0.9609375 -1.4062496,-0.9609375 -0.7734375,0 -1.359375,0.375 -1.359375,0.9375 0,0.234375 0.1523438,0.3632812 0.3632813,0.3632812 0.2109375,0 0.3515625,-0.1640625 0.3515625,-0.3515625 0,-0.1992187 -0.140625,-0.3515625 -0.3515625,-0.3632812 0.234375,-0.3046875 0.7148437,-0.3867188 0.9726562,-0.3867188 0.3164063,0 0.7617191,0.1523438 0.7617191,0.7617188 0,0.2929687 -0.105469,0.609375 -0.28125,0.83203121 -0.2343753,0.2578125 -0.4218753,0.28125 -0.7734378,0.29296875 -0.1757813,0.0234375 -0.1875,0.0234375 -0.2226563,0.0234375 -0.011719,0 -0.070312,0.0117188 -0.070312,0.09375 0,0.09375 0.058594,0.09375 0.1757813,0.09375 z m 0,0"
         style="fill:#000000;fill-opacity:1;fill-rule:nonzero;stroke:none" />
    </g>
    <g
       id="g8"
       aria-label="a&#10;/3"
       transform="matrix(1.3333333,0,0,1.3333333,128.584,63.854667)">
      <path
         id="path9"
         d="m 2.9428594,-2.6595547 c -0.140625,-0.234375 -0.3867188,-0.4101562 -0.7148438,-0.4101562 -0.890625,0 -1.80468748,0.9726562 -1.80468748,1.9804687 0,0.67968751 0.45703125,1.16015626 1.05468748,1.16015626 0.375,0 0.7148438,-0.2109375 0.9960938,-0.4921875 0.1289062,0.4218750025 0.5273437,0.4921875 0.7148437,0.4921875 0.2460938,0 0.421875,-0.15234375 0.5507813,-0.375 0.1523437,-0.26953125 0.2460937,-0.66796875 0.2460937,-0.69140625 0,-0.09375 -0.09375,-0.09375 -0.1171875,-0.09375 -0.09375,0 -0.1054687,0.035156 -0.1523437,0.22265627 -0.082031,0.328125 -0.2109375,0.73828125 -0.5039063,0.73828125 -0.1875,0 -0.234375,-0.15234375 -0.234375,-0.33984375 0,-0.1171875 0.058594,-0.36328125 0.1054688,-0.55078127 0.046875,-0.1875 0.1171875,-0.46875 0.1523437,-0.6210937 l 0.140625,-0.5390625 c 0.046875,-0.1757813 0.1289063,-0.5039063 0.1289063,-0.5390625 0,-0.1523438 -0.1289063,-0.2226563 -0.2460938,-0.2226563 -0.1171875,0 -0.2695312,0.082031 -0.3164062,0.28125 z m -0.4453125,1.79296876 c -0.046875,0.1875 -0.1992188,0.328125 -0.3515625,0.45703125 -0.070312,0.0585938 -0.3398438,0.28125 -0.6445313,0.28125 -0.2578125,0 -0.51562498,-0.17578125 -0.51562498,-0.66796875 0,-0.37499996 0.21093748,-1.13671876 0.36328128,-1.41796876 0.328125,-0.5625 0.6796875,-0.6679687 0.8789062,-0.6679687 0.4804688,0 0.6210938,0.5273437 0.6210938,0.609375 0,0.023437 -0.011719,0.082031 -0.023437,0.09375 z m 0,0"
         style="fill:#000000;fill-opacity:1;fill-rule:nonzero;stroke:none" />
      <path
         id="path10"
         d="m 7.5864141,-5.04725 c 0.046875,-0.1289062 0.046875,-0.1757812 0.046875,-0.1875 0,-0.1054687 -0.082031,-0.1992187 -0.1992188,-0.1992187 -0.070312,0 -0.1289062,0.035156 -0.1640625,0.09375 L 3.8129766,4.1519688 c -0.046875,0.1289062 -0.046875,0.1757812 -0.046875,0.1875 0,0.1054687 0.082031,0.1992187 0.1992187,0.1992187 0.1289063,0 0.1523438,-0.070312 0.2109375,-0.2460937 z m 0,0"
         style="fill:#000000;fill-opacity:1;fill-rule:nonzero;stroke:none" />
      <path
         id="path11"
         d="m 9.5405156,-0.2894375 c 0.5507814,0 0.9375004,0.375 0.9375004,1.125 0,0.8671875 -0.5039066,1.125 -0.9023441,1.125 -0.28125,0 -0.890625,-0.082031 -1.1835938,-0.4921875 0.328125,-0.011719 0.3984375,-0.2460937 0.3984375,-0.3867187 0,-0.2226563 -0.1640625,-0.3867188 -0.3867187,-0.3867188 -0.1875,0 -0.3867188,0.1171875 -0.3867188,0.4101563 0,0.65625 0.7265625,1.078125 1.5703125,1.078125 0.9726564,0 1.6406254,-0.6445313 1.6406254,-1.3476563 0,-0.5390625 -0.445313,-1.08984375 -1.21875,-1.2421875 0.738281,-0.26953125 0.996093,-0.796875 0.996093,-1.21875 0,-0.5507812 -0.632812,-0.9609375 -1.4062496,-0.9609375 -0.7734375,0 -1.359375,0.375 -1.359375,0.9375 0,0.234375 0.1523437,0.3632813 0.3632812,0.3632813 0.2109375,0 0.3515625,-0.1640625 0.3515625,-0.3515625 0,-0.1992188 -0.140625,-0.3515625 -0.3515625,-0.3632813 0.234375,-0.3046875 0.7148438,-0.3867187 0.9726563,-0.3867187 0.3164062,0 0.7617191,0.1523437 0.7617191,0.7617187 0,0.2929688 -0.105469,0.609375 -0.28125,0.83203125 -0.2343754,0.2578125 -0.4218754,0.28125 -0.7734379,0.29296875 -0.1757812,0.0234375 -0.1875,0.0234375 -0.2226562,0.0234375 -0.011719,0 -0.070312,0.0117188 -0.070312,0.09375 0,0.09375 0.058594,0.09375 0.1757812,0.09375 z m 0,0"
         style="fill:#000000;fill-opacity:1;fill-rule:nonzero;stroke:none" />
    </g>
    <g
       id="g11"
       aria-label="F&#10;2"
       transform="matrix(1.3333333,0,0,1.3333333,56.006667,66.798667)">
      <path
         id="path12"
         d="m 3.0242969,-3.2357187 h 0.9609375 c 0.75,0 0.8320312,0.1523437 0.8320312,0.4453125 0,0.070312 0,0.1875 -0.070312,0.4921875 -0.023437,0.046875 -0.035156,0.082031 -0.035156,0.1054687 0,0.082031 0.058594,0.1171875 0.1171875,0.1171875 0.1054687,0 0.1054687,-0.023437 0.1523437,-0.2109375 l 0.5507813,-2.15625 c 0.023437,-0.1054687 0.023437,-0.1289062 0.023437,-0.1640625 0,-0.011719 -0.011719,-0.1054687 -0.1171875,-0.1054687 -0.09375,0 -0.1054688,0.046875 -0.1523438,0.2109375 C 5.0867969,-3.7279062 4.8524219,-3.552125 4.0086719,-3.552125 H 3.0946094 l 0.6445312,-2.53125 c 0.082031,-0.3398437 0.09375,-0.3867187 0.5390625,-0.3867187 h 1.3125 c 1.21875,0 1.453125,0.328125 1.453125,1.1015625 0,0.2226562 0,0.2695312 -0.035156,0.5390625 -0.011719,0.1289062 -0.011719,0.140625 -0.011719,0.1757812 0,0.046875 0.023437,0.1171875 0.1171875,0.1171875 0.1054688,0 0.1171875,-0.058594 0.140625,-0.2460937 L 7.4539844,-6.50525 C 7.4774219,-6.7747812 7.4305469,-6.7747812 7.1844531,-6.7747812 H 2.2977344 c -0.1992188,0 -0.2929688,0 -0.2929688,0.1992187 0,0.1054688 0.09375,0.1054688 0.28125,0.1054688 0.3632813,0 0.6445313,0 0.6445313,0.1875 0,0.035156 0,0.058594 -0.046875,0.234375 l -1.3242188,5.27343745 c -0.09375,0.38671875 -0.1171875,0.46875 -0.90234372,0.46875 -0.1640625,0 -0.28125,0 -0.28125,0.1875 0,0.1171875 0.12890625,0.1171875 0.15234375,0.1171875 0.29296875,0 1.03124997,-0.03515625 1.31249997,-0.03515625 0.328125,0 1.1601563,0.03515625 1.4882813,0.03515625 0.09375,0 0.2109375,0 0.2109375,-0.1875 0,-0.0820312 -0.058594,-0.10546875 -0.058594,-0.1171875 -0.035156,0 -0.058594,0 -0.28125,0 -0.2226562,0 -0.2695312,0 -0.515625,-0.0234375 -0.2929687,-0.0351563 -0.328125,-0.0703125 -0.328125,-0.19921875 0,-0.0234375 0,-0.0820313 0.046875,-0.234375 z m 0,0"
         style="fill:#000000;fill-opacity:1;fill-rule:nonzero;stroke:none" />
      <path
         id="path13"
         d="m 9.9207813,0.22717188 h -0.234375 c -0.023437,0.15234375 -0.082031,0.5625 -0.1757813,0.6328125 -0.058594,0.0351563 -0.5976562,0.0351563 -0.6914062,0.0351563 H 7.5301563 c 0.7382812,-0.64453125 0.984375,-0.84375 1.3945312,-1.171875 0.515625,-0.41015625 0.9960938,-0.84374998 0.9960938,-1.49999998 0,-0.8437501 -0.7382813,-1.3593751 -1.6289063,-1.3593751 -0.8671875,0 -1.453125,0.609375 -1.453125,1.2421876 0,0.3632813 0.3046875,0.3984375 0.375,0.3984375 0.1640625,0 0.375,-0.1171875 0.375,-0.375 0,-0.1289062 -0.058594,-0.3632812 -0.421875,-0.3632812 0.2226563,-0.5039064 0.6914063,-0.65625 1.0195313,-0.65625 0.703125,0 1.0664062,0.5507811 1.0664062,1.1132812 0,0.609375 -0.4335937,1.08984373 -0.65625,1.33593748 l -1.6875,1.66406252 C 6.83875,1.2818594 6.83875,1.2935781 6.83875,1.4927969 h 2.8828125 z m 0,0"
         style="fill:#000000;fill-opacity:1;fill-rule:nonzero;stroke:none" />
    </g>
  </g>
</svg>
