<?xml version="1.0" encoding="UTF-8" standalone="no"?>
<!-- Created with Inkscape (http://www.inkscape.org/) -->

<svg
   version="1.1"
   id="svg1"
   width="156.26401"
   height="143.308"
   viewBox="0 0 156.26401 143.308"
   xmlns="http://www.w3.org/2000/svg"
   xmlns:svg="http://www.w3.org/2000/svg">
  <defs
     id="defs1" />
  <g
     id="g1">
    <path
       id="path1"
       d="m 0,0 h 18.89713 v -6.29904 h -6.29905 v -6.29904 h 6.29905 v -6.29905 h 6.29907 v -6.29907 h 6.29904 v 6.29907 h 6.29904 v 6.29905 h 6.29907 v 6.29904 H 37.79428 V 0 h 18.89716"
       style="fill:none;stroke:#000000;stroke-width:0.3985;stroke-linecap:butt;stroke-linejoin:miter;stroke-miterlimit:10;stroke-dasharray:none;stroke-opacity:1"
       transform="matrix(1.3333333,0,0,-1.3333333,33.86,109.448)" />
    <path
       id="path2"
       d="m 12.59808,-12.59808 h 6.29905 v 6.29904 h -6.29905 v -6.29904"
       style="fill:#b8e986;fill-opacity:0.5;fill-rule:nonzero;stroke:none"
       transform="matrix(1.3333333,0,0,-1.3333333,33.86,109.448)" />
    <path
       id="path3"
       d="m 25.1962,-25.1962 h 6.29904 v 6.29907 H 25.1962 v -6.29907"
       style="fill:#b8e986;fill-opacity:0.5;fill-rule:nonzero;stroke:none"
       transform="matrix(1.3333333,0,0,-1.3333333,33.86,109.448)" />
    <path
       id="path4"
       d="m 37.79428,-12.59808 h 6.29907 v 6.29904 h -6.29907 v -6.29904"
       style="fill:#b8e986;fill-opacity:0.5;fill-rule:nonzero;stroke:none"
       transform="matrix(1.3333333,0,0,-1.3333333,33.86,109.448)" />
    <path
       id="path5"
       d="m 56.69144,0 v 18.89713 h 6.29904 v -6.29905 h 6.29906 v 6.29905 h 6.29904 v 6.29907 h 6.29905 v 6.29904 h -6.29905 v 6.29904 h -6.29904 v 6.29907 h -6.29906 v -6.29907 h -6.29904 v 18.89716"
       style="fill:none;stroke:#000000;stroke-width:0.3985;stroke-linecap:butt;stroke-linejoin:miter;stroke-miterlimit:10;stroke-dasharray:none;stroke-opacity:1"
       transform="matrix(1.3333333,0,0,-1.3333333,33.86,109.448)" />
    <path
       id="path6"
       d="m 69.28954,12.59808 v 6.29905 h -6.29906 v -6.29905 h 6.29906"
       style="fill:#b8e986;fill-opacity:0.5;fill-rule:nonzero;stroke:none"
       transform="matrix(1.3333333,0,0,-1.3333333,33.86,109.448)" />
    <path
       id="path7"
       d="m 81.88763,25.1962 v 6.29904 H 75.58858 V 25.1962 h 6.29905"
       style="fill:#b8e986;fill-opacity:0.5;fill-rule:nonzero;stroke:none"
       transform="matrix(1.3333333,0,0,-1.3333333,33.86,109.448)" />
    <path
       id="path8"
       d="m 69.28954,37.79428 v 6.29907 h -6.29906 v -6.29907 h 6.29906"
       style="fill:#b8e986;fill-opacity:0.5;fill-rule:nonzero;stroke:none"
       transform="matrix(1.3333333,0,0,-1.3333333,33.86,109.448)" />
    <path
       id="path9"
       d="M 56.69144,56.69144 H 37.7943 v 6.29904 h 6.29905 v 6.29906 H 37.7943 v 6.29904 h -6.29906 v 6.29905 H 25.1962 v -6.29905 h -6.29906 v -6.29904 h -6.29906 v -6.29906 h 6.29906 V 56.69144 H 0"
       style="fill:none;stroke:#000000;stroke-width:0.3985;stroke-linecap:butt;stroke-linejoin:miter;stroke-miterlimit:10;stroke-dasharray:none;stroke-opacity:1"
       transform="matrix(1.3333333,0,0,-1.3333333,33.86,109.448)" />
    <path
       id="path10"
       d="M 44.09335,69.28954 H 37.7943 v -6.29906 h 6.29905 v 6.29906"
       style="fill:#b8e986;fill-opacity:0.5;fill-rule:nonzero;stroke:none"
       transform="matrix(1.3333333,0,0,-1.3333333,33.86,109.448)" />
    <path
       id="path11"
       d="M 31.49524,81.88763 H 25.1962 v -6.29905 h 6.29904 v 6.29905"
       style="fill:#b8e986;fill-opacity:0.5;fill-rule:nonzero;stroke:none"
       transform="matrix(1.3333333,0,0,-1.3333333,33.86,109.448)" />
    <path
       id="path12"
       d="m 18.89714,69.28954 h -6.29906 v -6.29906 h 6.29906 v 6.29906"
       style="fill:#b8e986;fill-opacity:0.5;fill-rule:nonzero;stroke:none"
       transform="matrix(1.3333333,0,0,-1.3333333,33.86,109.448)" />
    <path
       id="path13"
       d="M 0,56.69144 V 37.7943 h -6.29904 v 6.29905 h -6.29904 V 37.7943 h -6.29905 V 31.49524 H -25.1962 V 25.1962 h 6.29907 v -6.29906 h 6.29905 v -6.29906 h 6.29904 v 6.29906 H 0 V 0"
       style="fill:none;stroke:#000000;stroke-width:0.3985;stroke-linecap:butt;stroke-linejoin:miter;stroke-miterlimit:10;stroke-dasharray:none;stroke-opacity:1"
       transform="matrix(1.3333333,0,0,-1.3333333,33.86,109.448)" />
    <path
       id="path14"
       d="M -12.59808,44.09335 V 37.7943 h 6.29904 v 6.29905 h -6.29904"
       style="fill:#b8e986;fill-opacity:0.5;fill-rule:nonzero;stroke:none"
       transform="matrix(1.3333333,0,0,-1.3333333,33.86,109.448)" />
    <path
       id="path15"
       d="M -25.1962,31.49524 V 25.1962 h 6.29907 v 6.29904 h -6.29907"
       style="fill:#b8e986;fill-opacity:0.5;fill-rule:nonzero;stroke:none"
       transform="matrix(1.3333333,0,0,-1.3333333,33.86,109.448)" />
    <path
       id="path16"
       d="m -12.59808,18.89714 v -6.29906 h 6.29904 v 6.29906 h -6.29904"
       style="fill:#b8e986;fill-opacity:0.5;fill-rule:nonzero;stroke:none"
       transform="matrix(1.3333333,0,0,-1.3333333,33.86,109.448)" />
    <g
       id="g16"
       aria-label="a&#10;/9"
       transform="matrix(0.66666667,0,0,0.66666667,144.32667,71.953333)">
      <path
         id="path17"
         d="m 3.119375,-1.8753125 c 0,-0.375 0,-0.6328125 -0.328125,-0.890625 C 2.51,-3.0003125 2.181875,-3.1175 1.76,-3.1175 c -0.65625,0 -1.125,0.2578125 -1.125,0.6796875 0,0.234375 0.140625,0.3515625 0.328125,0.3515625 0.1875,0 0.328125,-0.140625 0.328125,-0.328125 0,-0.1171875 -0.046875,-0.28125 -0.234375,-0.328125 C 1.29125,-2.93 1.713125,-2.93 1.76,-2.93 c 0.375,0 0.796875,0.2578125 0.796875,0.84375 v 0.234375 c -0.375,0 -0.84375,0.023437 -1.3359375,0.2109375 -0.6328125,0.234375 -0.84375,0.609375 -0.84375,0.9375 0,0.609375 0.7265625,0.7734375 1.2421875,0.7734375 0.5390625,0 0.8671875,-0.3046875 1.03125,-0.5859375 0.023437,0.28125 0.2109375,0.5390625 0.5390625,0.5390625 0,0 0.6796875,0 0.6796875,-0.65625 v -0.375 H 3.635 v 0.375 c 0,0.0703125 0,0.3984375 -0.2578125,0.3984375 -0.2578125,0 -0.2578125,-0.328125 -0.2578125,-0.421875 z m -0.5625,0.890625 C 2.556875,-0.305 1.9709375,-0.1175 1.66625,-0.1175 c -0.3515625,0 -0.703125,-0.234375 -0.703125,-0.5859375 0,-0.375 0.3515625,-0.9140625 1.59375,-0.984375 z m 0,0"
         style="fill:#000000;fill-opacity:1;fill-rule:nonzero;stroke:none" />
      <path
         id="path18"
         d="m 7.2267969,-5.0569531 c 0.046875,-0.1171875 0.046875,-0.140625 0.046875,-0.1640625 0,-0.1171875 -0.09375,-0.2109375 -0.1875,-0.2109375 -0.140625,0 -0.1875,0.09375 -0.2109375,0.2109375 l -3.3984375,9.375 c -0.046875,0.140625 -0.046875,0.1640625 -0.046875,0.1875 0,0.09375 0.09375,0.1875 0.1875,0.1875 0.140625,0 0.1875,-0.09375 0.2109375,-0.1875 z m 0,0"
         style="fill:#000000;fill-opacity:1;fill-rule:nonzero;stroke:none" />
      <path
         id="path19"
         d="m 10.220938,-0.04132812 c 0,1.73437502 -0.867188,1.99218752 -1.289063,1.99218752 -0.1640625,0 -0.515625,0 -0.703125,-0.2109375 0.28125,-0.046875 0.3046875,-0.28125 0.3046875,-0.328125 0,-0.1875 -0.1171875,-0.328125 -0.328125,-0.328125 -0.2109375,0 -0.3515625,0.140625 -0.3515625,0.328125 0,0.46875 0.3984375,0.7734375 1.078125,0.7734375 1.0078125,0 1.945313,-0.9375 1.945313,-2.43750002 0,-1.73437498 -0.773438,-2.34374998 -1.570313,-2.34374998 -0.234375,0 -0.7265625,0.046875 -1.125,0.421875 -0.234375,0.234375 -0.515625,0.515625 -0.515625,1.1484375 0,0.86718748 0.703125,1.52343748 1.5234375,1.52343748 0.5625,0 0.8671875,-0.3515625 1.0312505,-0.6796875 z m -0.9843755,0.3515625 c -0.28125,0 -0.5390625,-0.09375 -0.7265625,-0.3984375 -0.1640625,-0.28125 -0.1640625,-0.5625 -0.1640625,-0.93749998 0,-0.421875 0,-0.703125 0.1875,-0.984375 0.1640625,-0.234375 0.3984375,-0.375 0.7734375,-0.375 0.3515625,0 0.5625,0.2109375 0.6796875,0.3984375 0.1875005,0.3046875 0.2109375,0.7734375 0.2109375,1.03124998 0,0.9140625 -0.5390625,1.265625 -0.9609375,1.265625 z m 0,0"
         style="fill:#000000;fill-opacity:1;fill-rule:nonzero;stroke:none" />
    </g>
    <g
       id="g19"
       aria-label="a&#10;/9"
       transform="matrix(0.66666667,0,0,0.66666667,135.928,63.554667)">
      <path
         id="path20"
         d="m 3.1197188,-1.8749687 c 0,-0.375 0,-0.6328125 -0.328125,-0.890625 -0.28125,-0.234375 -0.609375,-0.3515625 -1.03125,-0.3515625 -0.65625,0 -1.12500005,0.2578125 -1.12500005,0.6796875 0,0.234375 0.140625,0.3515625 0.328125,0.3515625 0.18750005,0 0.32812505,-0.140625 0.32812505,-0.328125 0,-0.1171875 -0.046875,-0.28125 -0.234375,-0.328125 0.234375,-0.1875 0.65625,-0.1875 0.703125,-0.1875 0.375,0 0.796875,0.2578125 0.796875,0.84375 v 0.234375 c -0.375,0 -0.84375,0.023437 -1.3359375,0.2109375 -0.63281255,0.234375 -0.84375005,0.609375 -0.84375005,0.93749995 0,0.609375 0.72656255,0.7734375 1.24218755,0.7734375 0.5390625,0 0.8671875,-0.3046875 1.03125,-0.5859375 0.023437,0.28125 0.2109375,0.5390625 0.5390625,0.5390625 0,0 0.6796875,0 0.6796875,-0.65625 V -1.0077812 h -0.234375 v 0.37499995 c 0,0.0703125 0,0.3984375 -0.2578125,0.3984375 -0.2578125,0 -0.2578125,-0.328125 -0.2578125,-0.421875 z m -0.5625,0.89062495 c 0,0.6796875 -0.5859375,0.8671875 -0.890625,0.8671875 -0.3515625,0 -0.70312505,-0.234375 -0.70312505,-0.5859375 0,-0.37499995 0.35156255,-0.91406245 1.59375005,-0.98437495 z m 0,0"
         style="fill:#000000;fill-opacity:1;fill-rule:nonzero;stroke:none" />
      <path
         id="path21"
         d="m 7.2271406,-5.0624687 c 0.046875,-0.1171875 0.046875,-0.140625 0.046875,-0.1640625 0,-0.1171875 -0.09375,-0.2109375 -0.1875,-0.2109375 -0.140625,0 -0.1875,0.09375 -0.2109375,0.2109375 l -3.3984375,9.375 c -0.046875,0.140625 -0.046875,0.1640625 -0.046875,0.1875 0,0.09375 0.09375,0.1875 0.1875,0.1875 0.140625,0 0.1875,-0.09375 0.2109375,-0.1875 z m 0,0"
         style="fill:#000000;fill-opacity:1;fill-rule:nonzero;stroke:none" />
      <path
         id="path22"
         d="m 10.221281,-0.04684375 c 0,1.73437505 -0.8671872,1.99218755 -1.2890622,1.99218755 -0.1640625,0 -0.515625,0 -0.703125,-0.2109375 0.28125,-0.046875 0.3046875,-0.28125 0.3046875,-0.328125 0,-0.1875 -0.1171875,-0.328125 -0.328125,-0.328125 -0.2109375,0 -0.3515625,0.140625 -0.3515625,0.328125 0,0.46875 0.3984375,0.7734375 1.078125,0.7734375 1.0078125,0 1.9453122,-0.9375 1.9453122,-2.43750005 0,-1.73437495 -0.773437,-2.34374995 -1.5703122,-2.34374995 -0.234375,0 -0.7265625,0.046875 -1.125,0.421875 -0.234375,0.234375 -0.515625,0.515625 -0.515625,1.1484375 0,0.86718745 0.703125,1.52343745 1.5234375,1.52343745 0.5625,0 0.8671877,-0.3515625 1.0312497,-0.6796875 z m -0.9843747,0.3515625 c -0.28125,0 -0.5390625,-0.09375 -0.7265625,-0.3984375 -0.1640625,-0.28125 -0.1640625,-0.5625 -0.1640625,-0.93749995 0,-0.421875 0,-0.703125 0.1875,-0.984375 0.1640625,-0.234375 0.3984375,-0.375 0.7734375,-0.375 0.3515625,0 0.5625,0.2109375 0.6796875,0.3984375 0.1874997,0.3046875 0.2109377,0.7734375 0.2109377,1.03124995 0,0.9140625 -0.5390627,1.265625 -0.9609377,1.265625 z m 0,0"
         style="fill:#000000;fill-opacity:1;fill-rule:nonzero;stroke:none" />
    </g>
    <g
       id="g22"
       aria-label="F&#10;3"
       transform="matrix(1.3333333,0,0,1.3333333,64.402667,75.196)">
      <path
         id="path23"
         d="m 3.0231953,-3.2348906 h 0.9609375 c 0.75,0 0.8320313,0.1523437 0.8320313,0.4453125 0,0.070312 0,0.1875 -0.070312,0.4921875 -0.023437,0.046875 -0.035156,0.082031 -0.035156,0.1054687 0,0.082031 0.058594,0.1171875 0.1171875,0.1171875 0.1054688,0 0.1054688,-0.023437 0.1523438,-0.2109375 l 0.5507812,-2.15625 c 0.023437,-0.1054687 0.023437,-0.1289062 0.023437,-0.1640625 0,-0.011719 -0.011719,-0.1054687 -0.1171875,-0.1054687 -0.09375,0 -0.1054687,0.046875 -0.1523437,0.2109375 -0.1992188,0.7734375 -0.4335938,0.9492187 -1.2773438,0.9492187 H 3.0935078 l 0.6445313,-2.53125 c 0.082031,-0.3398437 0.09375,-0.3867187 0.5390625,-0.3867187 h 1.3125 c 1.21875,0 1.453125,0.328125 1.453125,1.1015625 0,0.2226562 0,0.2695312 -0.035156,0.5390625 -0.011719,0.1289062 -0.011719,0.140625 -0.011719,0.1757812 0,0.046875 0.023437,0.1171875 0.1171875,0.1171875 0.1054687,0 0.1171875,-0.058594 0.140625,-0.2460937 L 7.4528828,-6.5044219 C 7.4763203,-6.7739531 7.4294453,-6.7739531 7.1833516,-6.7739531 H 2.2966328 c -0.1992187,0 -0.2929687,0 -0.2929687,0.1992187 0,0.1054688 0.09375,0.1054688 0.28125,0.1054688 0.3632812,0 0.6445312,0 0.6445312,0.1875 0,0.035156 0,0.058594 -0.046875,0.234375 l -1.3242187,5.27343748 c -0.09375,0.38671875 -0.1171875,0.46875 -0.90234379,0.46875 -0.1640625,0 -0.28125,0 -0.28125,0.1875 0,0.117187495 0.12890625,0.117187495 0.15234375,0.117187495 0.29296875,0 1.03125004,-0.035156245 1.31250004,-0.035156245 0.328125,0 1.1601562,0.035156245 1.4882812,0.035156245 0.09375,0 0.2109375,0 0.2109375,-0.187499995 0,-0.0820313 -0.058594,-0.10546875 -0.058594,-0.1171875 -0.035156,0 -0.058594,0 -0.28125,0 -0.2226563,0 -0.2695313,0 -0.515625,-0.0234375 -0.2929688,-0.0351563 -0.328125,-0.0703125 -0.328125,-0.19921875 0,-0.0234375 0,-0.0820313 0.046875,-0.234375 z m 0,0"
         style="fill:#000000;fill-opacity:1;fill-rule:nonzero;stroke:none" />
      <path
         id="path24"
         d="m 8.3054219,-0.83840625 c 0.5507812,0 0.9375,0.375 0.9375,1.125 0,0.86718755 -0.5039063,1.12500005 -0.9023438,1.12500005 -0.28125,0 -0.890625,-0.082031 -1.1835937,-0.49218755 0.328125,-0.0117188 0.3984375,-0.24609375 0.3984375,-0.38671875 0,-0.22265625 -0.1640625,-0.38671875 -0.3867188,-0.38671875 -0.1875,0 -0.3867187,0.1171875 -0.3867187,0.41015625 0,0.65625 0.7265625,1.078125 1.5703125,1.078125 0.9726562,0 1.640625,-0.64453125 1.640625,-1.34765625 0,-0.5390625 -0.4453125,-1.08984375 -1.21875,-1.2421875 0.7382812,-0.26953125 0.9960937,-0.79687495 0.9960937,-1.21874995 0,-0.5507813 -0.6328125,-0.9609375 -1.40625,-0.9609375 -0.7734375,0 -1.359375,0.375 -1.359375,0.9375 0,0.234375 0.1523438,0.3632812 0.3632813,0.3632812 0.2109375,0 0.3515625,-0.1640625 0.3515625,-0.3515625 0,-0.1992187 -0.140625,-0.3515625 -0.3515625,-0.3632812 0.234375,-0.3046875 0.7148437,-0.3867188 0.9726562,-0.3867188 0.3164063,0 0.7617188,0.1523438 0.7617188,0.7617188 0,0.2929687 -0.1054688,0.609375 -0.28125,0.8320312 -0.234375,0.2578125 -0.421875,0.28125 -0.7734375,0.2929688 -0.1757813,0.023437 -0.1875,0.023437 -0.2226563,0.023437 -0.011719,0 -0.070312,0.011719 -0.070312,0.09375 0,0.09375 0.058594,0.09375 0.1757813,0.09375 z m 0,0"
         style="fill:#000000;fill-opacity:1;fill-rule:nonzero;stroke:none" />
    </g>
  </g>
</svg>
