<?xml version="1.0" encoding="UTF-8" standalone="no"?>
<!-- Created with Inkscape (http://www.inkscape.org/) -->

<svg
   version="1.1"
   id="svg1"
   width="336.96799"
   height="311.47198"
   viewBox="0 0 336.96799 311.47198"
   xmlns="http://www.w3.org/2000/svg"
   xmlns:svg="http://www.w3.org/2000/svg">
  <defs
     id="defs1" />
  <g
     id="g1">
    <path
       id="path1"
       d="m 1.7819375,-1.1476172 c -0.3984375,0.66796876 -0.78515625,0.80859376 -1.21875,0.84375001 -0.12890625,0 -0.2109375,0 -0.2109375,0.19921875 0,0.05859375 0.046875,0.1054687525 0.12890625,0.1054687525 0.26953125,0 0.57421875,-0.0351562525 0.85546875,-0.0351562525 0.328125,0 0.6796875,0.0351562525 0.9960938,0.0351562525 0.058594,0 0.1875,0 0.1875,-0.1875000025 0,-0.1171875 -0.09375,-0.1171875 -0.1640625,-0.1171875 C 2.1335,-0.32730469 1.899125,-0.40933594 1.899125,-0.65542969 c 0,-0.1171875 0.058594,-0.234375 0.1289063,-0.37500001 L 2.78975,-2.2960547 h 2.4960938 c 0.023437,0.1992188 0.1640625,1.55859376 0.1640625,1.66406251 0,0.29296875 -0.515625,0.328125 -0.7148438,0.328125 -0.140625,0 -0.2460937,0 -0.2460937,0.19921875 0,0.1054687525 0.1289062,0.1054687525 0.140625,0.1054687525 0.4101562,0 0.84375,-0.0351562525 1.2539062,-0.0351562525 0.2460938,0 0.8671875,0.0351562525 1.125,0.0351562525 0.058594,0 0.1757813,0 0.1757813,-0.1992187525 0,-0.10546875 -0.1054688,-0.10546875 -0.234375,-0.10546875 -0.609375,0 -0.609375,-0.0703125 -0.6445313,-0.36328125 L 5.696,-6.8898047 C 5.684281,-7.0890234 5.684281,-7.1358984 5.5085,-7.1358984 c -0.1640625,0 -0.1992187,0.070312 -0.2578125,0.1757812 z m 1.1953125,-1.4648437 1.96875,-3.28125 0.3164063,3.28125 z m 0,0"
       style="fill:#000000;fill-opacity:1;fill-rule:nonzero;stroke:none"
       aria-label="A"
       transform="matrix(1.3333333,0,0,1.3333333,156.40533,249.12)" />
    <path
       id="path2"
       d="m 1.5938203,-0.7743125 c -0.09375,0.38671875 -0.1171875,0.46875 -0.90234374,0.46875 -0.17578125,0 -0.26953125,0 -0.26953125,0.19921875 0,0.10546875 0.0820313,0.10546875 0.26953125,0.10546875 H 4.2422578 c 1.5703125,0 2.7539063,-1.171875 2.7539063,-2.15625 0,-0.7148437 -0.5859375,-1.2890625 -1.546875,-1.3945312 1.03125,-0.1992188 2.0859375,-0.9375 2.0859375,-1.875 0,-0.7382813 -0.65625,-1.3828125 -1.8515625,-1.3828125 H 2.3321016 c -0.1875,0 -0.2929688,0 -0.2929688,0.1992187 0,0.1171875 0.09375,0.1171875 0.28125,0.1171875 0.023437,0 0.2109375,0 0.375,0.011719 0.1875,0.023437 0.2695313,0.035156 0.2695313,0.1640625 0,0.035156 -0.011719,0.070312 -0.035156,0.1875 z m 1.5,-2.8710937 0.6210938,-2.4726563 c 0.09375,-0.3515625 0.1054687,-0.375 0.5390625,-0.375 h 1.2890625 c 0.8671875,0 1.078125,0.5859375 1.078125,1.0195313 0,0.8789062 -0.8554688,1.828125 -2.0742188,1.828125 z m -0.4453125,3.3398437 c -0.140625,0 -0.1523437,0 -0.2226562,-0.0117188 C 2.3321016,-0.329 2.2969453,-0.34071875 2.2969453,-0.42275 c 0,-0.0234375 0,-0.046875 0.058594,-0.22265625 L 3.0352266,-3.42275 h 1.8867187 c 0.9609375,0 1.1484375,0.7265625 1.1484375,1.1601563 0,0.984375 -0.890625,1.9570312 -2.0625,1.9570312 z m 0,0"
       style="fill:#000000;fill-opacity:1;fill-rule:nonzero;stroke:none"
       aria-label="B"
       transform="matrix(1.3333333,0,0,1.3333333,231.996,97.938667)" />
    <path
       id="path3"
       d="m 7.5693438,-6.9266328 c 0,-0.023437 -0.023437,-0.09375 -0.1054688,-0.09375 -0.035156,0 -0.046875,0.011719 -0.1523437,0.1171875 l -0.703125,0.7617187 c -0.082031,-0.140625 -0.5390625,-0.8789062 -1.6523438,-0.8789062 -2.2148437,0 -4.453125,2.203125 -4.453125,4.5117187 0,1.64062504 1.171875,2.73046879 2.6953125,2.73046879 0.8671875,0 1.6171875,-0.3984375 2.1445313,-0.85546875 0.9375,-0.82031254 1.1015625,-1.72265624 1.1015625,-1.75781254 0,-0.1054687 -0.1054688,-0.1054687 -0.1171875,-0.1054687 -0.058594,0 -0.1171875,0.023437 -0.1289063,0.1054687 -0.09375,0.2929688 -0.3164062,0.9960938 -1.0078125,1.57031254 -0.6914062,0.5625 -1.3125,0.7265625 -1.8398437,0.7265625 -0.890625,0 -1.9453125,-0.515625 -1.9453125,-2.06250004 0,-0.5742187 0.2109375,-2.1914062 1.2070312,-3.3515625 0.609375,-0.703125 1.5351563,-1.2070312 2.4257813,-1.2070312 1.0195312,0 1.6054687,0.7734375 1.6054687,1.921875 0,0.3984375 -0.035156,0.4101562 -0.035156,0.5039062 0,0.1054688 0.1171875,0.1054688 0.1523437,0.1054688 0.1289063,0 0.1289063,-0.023437 0.1757813,-0.1992188 z m 0,0"
       style="fill:#000000;fill-opacity:1;fill-rule:nonzero;stroke:none"
       aria-label="C"
       transform="matrix(1.3333333,0,0,1.3333333,118.61067,117.27067)" />
    <path
       id="path4"
       d="m 1.5808281,-0.77197656 c -0.09375,0.38671875 -0.1171875,0.46875 -0.90234372,0.46875 -0.17578125,0 -0.28125,0 -0.28125,0.1875 0,0.1171875 0.09375,0.1171875 0.28125,0.1171875 H 3.9714531 c 2.0742188,0 4.03125,-2.09765624 4.03125,-4.28906254 0,-1.3945312 -0.84375,-2.5195312 -2.3320312,-2.5195312 H 2.3191094 c -0.1875,0 -0.2929688,0 -0.2929688,0.1992187 0,0.1171875 0.082031,0.1171875 0.28125,0.1171875 0.1289063,0 0.3164063,0.011719 0.4335938,0.011719 0.1523437,0.023437 0.2109375,0.058594 0.2109375,0.1640625 0,0.035156 0,0.070312 -0.035156,0.1875 z m 2.15625,-5.34375004 c 0.082031,-0.3515625 0.1054688,-0.375 0.5390625,-0.375 h 1.0664063 c 0.9726562,0 1.7929687,0.5273438 1.7929687,1.8398438 0,0.4921875 -0.1992187,2.1210937 -1.0429687,3.2226562 -0.28125,0.3632813 -1.078125,1.12500004 -2.296875,1.12500004 h -1.125 c -0.140625,0 -0.1640625,0 -0.2226563,-0.0117188 -0.09375,-0.0117188 -0.1289062,-0.0234375 -0.1289062,-0.10546875 0,-0.0234375 0,-0.046875 0.046875,-0.22265625 z m 0,0"
       style="fill:#000000;fill-opacity:1;fill-rule:nonzero;stroke:none"
       aria-label="D"
       transform="matrix(1.3333333,0,0,1.3333333,269.79067,192.86133)" />
    <path
       id="path5"
       d="m -113.38724,0 h 226.3162"
       style="fill:none;stroke:#000000;stroke-width:0.3985;stroke-linecap:butt;stroke-linejoin:miter;stroke-miterlimit:10;stroke-dasharray:none;stroke-opacity:1"
       transform="matrix(1.3333333,0,0,-1.3333333,151.712,159.76)" />
    <path
       id="path6"
       d="M -1.19551,1.59401 C -1.09587,0.99626 0,0.09961 0.29886,0 0,-0.09961 -1.09587,-0.99626 -1.19551,-1.59401"
       style="fill:none;stroke:#000000;stroke-width:0.31879;stroke-linecap:round;stroke-linejoin:round;stroke-miterlimit:10;stroke-dasharray:none;stroke-opacity:1"
       transform="matrix(1.3333333,0,0,-1.3333333,302.28395,159.76)" />
    <path
       id="path7"
       d="m 3.3283672,-3.0118125 c 0.058594,-0.2578125 0.2929687,-1.171875 0.984375,-1.171875 0.046875,0 0.2929687,0 0.5039062,0.1289063 -0.28125,0.046875 -0.4804687,0.3046875 -0.4804687,0.5390625 0,0.1640625 0.1054687,0.3515625 0.375,0.3515625 0.2226562,0 0.5390625,-0.1875 0.5390625,-0.5859375 0,-0.515625 -0.5859375,-0.65625 -0.9257813,-0.65625 -0.5742187,0 -0.9257812,0.5273437 -1.0429687,0.7617187 -0.2578125,-0.65625 -0.7851563,-0.7617187 -1.078125,-0.7617187 -1.0429688,0 -1.60546876,1.2890625 -1.60546876,1.5351562 0,0.1054688 0.10546875,0.1054688 0.1171875,0.1054688 0.0820313,0 0.1171875,-0.023437 0.12890625,-0.1171875 0.33984371,-1.0546875 0.99609371,-1.3007813 1.33593751,-1.3007813 0.1875,0 0.5390625,0.09375 0.5390625,0.6679688 0,0.3046875 -0.1640625,0.9726562 -0.5390625,2.3671875 -0.1523438,0.6210937 -0.5039063,1.0429687 -0.9492188,1.0429687 -0.058594,0 -0.28124996,0 -0.49218746,-0.12890625 C 0.98461719,-0.2930625 1.2072734,-0.504 1.2072734,-0.77353125 c 0,-0.26953125 -0.22265621,-0.35156245 -0.37499996,-0.35156245 -0.29296875,0 -0.5390625,0.25781245 -0.5390625,0.5742187 0,0.45703125 0.4921875,0.65625 0.93749996,0.65625 0.65625,0 1.0078125,-0.69140625 1.0429688,-0.75 0.1171875,0.36328125 0.4804687,0.75 1.078125,0.75 1.0195312,0 1.59375,-1.2773437 1.59375,-1.5351562 0,-0.09375 -0.09375,-0.09375 -0.1289063,-0.09375 -0.082031,0 -0.1054687,0.035156 -0.1289062,0.1054687 -0.328125,1.06640625 -0.9960938,1.3125 -1.3242188,1.3125 -0.3867187,0 -0.5390625,-0.328125 -0.5390625,-0.65625 0,-0.22265625 0.058594,-0.4453125 0.1640625,-0.8789062 z m 0,0"
       style="fill:#000000;fill-opacity:1;fill-rule:nonzero;stroke:none"
       aria-label="x"
       transform="matrix(1.3333333,0,0,1.3333333,299.09733,170.172)" />
    <path
       id="path8"
       d="m 0,-113.38724 v 226.3162"
       style="fill:none;stroke:#000000;stroke-width:0.3985;stroke-linecap:butt;stroke-linejoin:miter;stroke-miterlimit:10;stroke-dasharray:none;stroke-opacity:1"
       transform="matrix(1.3333333,0,0,-1.3333333,151.712,159.76)" />
    <path
       id="path9"
       d="M -1.19551,1.59401 C -1.09587,0.99626 0,0.09961 0.29886,0 0,-0.09961 -1.09587,-0.99626 -1.19551,-1.59401"
       style="fill:none;stroke:#000000;stroke-width:0.31879;stroke-linecap:round;stroke-linejoin:round;stroke-miterlimit:10;stroke-dasharray:none;stroke-opacity:1"
       transform="matrix(0,-1.3333333,-1.3333333,0,151.712,9.1880533)" />
    <path
       id="path10"
       d="m 4.8402813,-3.7955469 c 0.046875,-0.140625 0.046875,-0.1523437 0.046875,-0.2226562 0,-0.1875 -0.140625,-0.2695313 -0.2929688,-0.2695313 -0.1054687,0 -0.2578125,0.058594 -0.3515625,0.1992188 -0.023437,0.058594 -0.09375,0.3632812 -0.140625,0.5390625 -0.070312,0.2578125 -0.140625,0.5273437 -0.1992187,0.796875 l -0.4453125,1.79296873 c -0.035156,0.15234375 -0.46875,0.85546875 -1.125,0.85546875 -0.5039063,0 -0.6210938,-0.4453125 -0.6210938,-0.80859375 0,-0.45703123 0.1757813,-1.07812503 0.515625,-1.95703123 0.1523438,-0.4101563 0.1992188,-0.515625 0.1992188,-0.7148438 0,-0.4453125 -0.328125,-0.8203125 -0.8203125,-0.8203125 -0.9492188,0 -1.31250005,1.453125 -1.31250005,1.5351563 0,0.1054687 0.09375,0.1054687 0.1171875,0.1054687 0.09375,0 0.10546875,-0.023437 0.15234375,-0.1875 0.26953125,-0.9375 0.6679688,-1.2304687 1.0078125,-1.2304687 0.082031,0 0.2578125,0 0.2578125,0.3164062 0,0.2460938 -0.1054687,0.515625 -0.1757812,0.703125 -0.3984375,1.0546875 -0.5742188,1.6171875 -0.5742188,2.0859375 0,0.89062503 0.6210938,1.18359378 1.21875,1.18359378 0.3867188,0 0.7265625,-0.1640625 0.9960938,-0.4453125 C 3.1645,0.17710938 3.0473125,0.66929688 2.648875,1.1966406 2.3910625,1.5364844 2.0160625,1.8294531 1.5590313,1.8294531 c -0.140625,0 -0.5976563,-0.035156 -0.7617188,-0.421875 0.1640625,0 0.2929688,0 0.4335938,-0.1171875 0.09375,-0.09375 0.1992187,-0.2226562 0.1992187,-0.41015622 0,-0.31640625 -0.2695312,-0.3515625 -0.375,-0.3515625 -0.22265625,0 -0.55078125,0.1640625 -0.55078125,0.64453122 0,0.5039063 0.43359375,0.8671875 1.05468755,0.8671875 1.0195312,0 2.0507812,-0.9023437 2.3320312,-2.02734372 z m 0,0"
       style="fill:#000000;fill-opacity:1;fill-rule:nonzero;stroke:none"
       aria-label="y"
       transform="matrix(1.3333333,0,0,1.3333333,140.03067,10.146667)" />
    <path
       id="path11"
       d="m -79.9382,-113.04984 1.61467,2.25351 1.61465,2.20768 1.61467,2.16183 1.61467,2.11554 1.61467,2.0697 1.61467,2.02384 1.61466,1.97801 1.61467,1.9317 1.61465,1.88587 1.61467,1.83958 1.61465,1.79375 1.61467,1.74788 1.61466,1.70204 1.61467,1.65574 1.61467,1.60991 1.61467,1.56406 1.61467,1.51778 1.61465,1.47192 1.61467,1.42609 1.61466,1.37979 1.61467,1.33395 1.61465,1.28809 1.61467,1.24182 1.61467,1.19595 1.61465,1.15013 1.61468,1.10384 1.61467,1.05842 1.61467,1.01171 1.61465,0.96629 1.61467,0.92 1.61466,0.87416 1.61466,0.82788 1.61466,0.78247 1.61467,0.73575 1.61467,0.69032 1.61465,0.64404 1.61467,0.5982 1.61467,0.55236 1.61467,0.50606 1.61466,0.46022 1.61467,0.41439 1.61465,0.36808 1.61467,0.32224 1.61466,0.2764 1.61467,0.23011 1.61466,0.18425 1.61466,0.13842 1.61467,0.09256 1.61467,0.04629 1.61464,4.3e-4 1.61465,-0.04585 1.61467,-0.09171 1.61466,-0.13754 1.61467,-0.1834 1.61467,-0.22967 1.61465,-0.27553 1.61467,-0.32138 1.61466,-0.36766 1.61467,-0.4135 1.61467,-0.45979 1.61466,-0.50521 1.61466,-0.55148 1.61467,-0.59734 1.61465,-0.64361 1.61467,-0.68947 1.61467,-0.73531 1.61466,-0.78117 1.61467,-0.82786 1.61465,-0.87331 1.61467,-0.91914 1.61467,-0.96541 1.61467,-1.01172 1.61466,-1.05713 1.61467,-1.10341 1.61466,-1.14881 1.61466,-1.19596 1.61467,-1.24095 1.61465,-1.28723 1.61467,-1.3331 1.61466,-1.3798 1.61467,-1.42477 1.61467,-1.47105 1.61467,-1.51693 1.61465,-1.56405 1.61467,-1.60904 1.61467,-1.65489 1.61466,-1.70073 1.61467,-1.7479 1.61465,-1.79287 1.61467,-1.8387 1.61466,-1.88501 1.61467,-1.93172 1.61467,-1.97714 1.61467,-2.02254 1.61467,-2.06882 1.61465,-2.11598 1.61467,-2.16052 1.61465,-2.20682 1.61467,-2.25265"
       style="fill:none;stroke:#000000;stroke-width:0.79701;stroke-linecap:butt;stroke-linejoin:miter;stroke-miterlimit:10;stroke-dasharray:none;stroke-opacity:1"
       transform="matrix(1.3333333,0,0,-1.3333333,151.712,159.76)" />
    <g
       id="g11"
       aria-label="f(x)"
       transform="matrix(1.3333333,0,0,1.3333333,263.22133,302.164)">
      <path
         id="path12"
         d="m 3.6572422,-3.9843281 h 0.8554687 c 0.1992188,0 0.3046875,0 0.3046875,-0.1992188 0,-0.1054687 -0.1054687,-0.1054687 -0.2695312,-0.1054687 H 3.7158359 l 0.2109375,-1.1367188 c 0.035156,-0.2109375 0.1757813,-0.9140625 0.234375,-1.0429687 0.09375,-0.1875 0.2578125,-0.3398438 0.46875,-0.3398438 0.046875,0 0.3046875,0 0.4921875,0.1875 -0.4335937,0.035156 -0.5390625,0.3867188 -0.5390625,0.5390625 0,0.2226563 0.1757813,0.3398438 0.3632813,0.3398438 0.2695312,0 0.5507812,-0.2109375 0.5507812,-0.5976563 0,-0.4570312 -0.4570312,-0.6796875 -0.8671875,-0.6796875 -0.3398437,0 -0.9609375,0.1757813 -1.265625,1.1601563 -0.058594,0.2109375 -0.082031,0.3164062 -0.328125,1.5703125 H 2.3564609 c -0.1992187,0 -0.3046875,0 -0.3046875,0.1875 0,0.1171875 0.09375,0.1171875 0.28125,0.1171875 h 0.65625 l -0.75,3.93749998 C 2.0634922,0.91410938 1.8994297,1.8281719 1.3720859,1.8281719 c -0.035156,0 -0.28125,0 -0.46874996,-0.1875 C 1.3603672,1.6172344 1.4423984,1.2539531 1.4423984,1.1016094 c 0,-0.22265627 -0.1757812,-0.33984377 -0.3632812,-0.33984377 -0.25781251,0 -0.55078126,0.2109375 -0.55078126,0.59765627 0,0.4453125 0.43359375,0.6796875 0.84374996,0.6796875 0.5507813,0 0.9492188,-0.5859375 1.125,-0.9609375 0.328125,-0.63281252 0.5507813,-1.83984377 0.5625,-1.91015627 z m 0,0"
         style="fill:#000000;fill-opacity:1;fill-rule:nonzero;stroke:none" />
      <path
         id="path13"
         d="m 9.2441563,2.3906719 c 0,-0.035156 0,-0.046875 -0.1640625,-0.2226563 -1.2421875,-1.25390622 -1.5703125,-3.12890622 -1.5703125,-4.6640625 0,-1.7226562 0.3867187,-3.4570312 1.6054687,-4.7109375 0.1289063,-0.1171875 0.1289063,-0.1289062 0.1289063,-0.1640625 0,-0.070312 -0.035156,-0.1054687 -0.09375,-0.1054687 -0.1054688,0 -0.9960938,0.6796875 -1.5820313,1.9453125 -0.515625,1.1015625 -0.6328125,2.203125 -0.6328125,3.0351562 0,0.7851563 0.1171875,1.99218753 0.65625,3.11718753 0.5976563,1.21874997 1.453125,1.87499997 1.5585938,1.87499997 0.058594,0 0.09375,-0.035156 0.09375,-0.1054687 z m 0,0"
         style="fill:#000000;fill-opacity:1;fill-rule:nonzero;stroke:none" />
      <path
         id="path14"
         d="m 13.152359,-3.0116719 c 0.05859,-0.2578125 0.292969,-1.171875 0.984375,-1.171875 0.04687,0 0.292969,0 0.503907,0.1289063 -0.28125,0.046875 -0.480469,0.3046875 -0.480469,0.5390625 0,0.1640625 0.105469,0.3515625 0.375,0.3515625 0.222656,0 0.539062,-0.1875 0.539062,-0.5859375 0,-0.515625 -0.585937,-0.65625 -0.925781,-0.65625 -0.574219,0 -0.925781,0.5273437 -1.042969,0.7617187 -0.257812,-0.65625 -0.785156,-0.7617187 -1.078125,-0.7617187 -1.042968,0 -1.605468,1.2890625 -1.605468,1.5351562 0,0.1054688 0.105468,0.1054688 0.117187,0.1054688 0.08203,0 0.117188,-0.023437 0.128906,-0.1171875 0.339844,-1.0546875 0.996094,-1.3007813 1.335938,-1.3007813 0.1875,0 0.539062,0.09375 0.539062,0.6679688 0,0.3046875 -0.164062,0.9726562 -0.539062,2.3671875 -0.152344,0.62109373 -0.503906,1.04296873 -0.949219,1.04296873 -0.05859,0 -0.28125,0 -0.492187,-0.12890625 0.246093,-0.0585937 0.46875,-0.26953125 0.46875,-0.5390625 0,-0.26953128 -0.222657,-0.35156248 -0.375,-0.35156248 -0.292969,0 -0.539063,0.25781248 -0.539063,0.57421873 0,0.45703125 0.492188,0.65625 0.9375,0.65625 0.65625,0 1.007813,-0.69140625 1.042969,-0.75 0.117187,0.36328125 0.480469,0.75 1.078125,0.75 1.019531,0 1.59375,-1.27734373 1.59375,-1.53515623 0,-0.09375 -0.09375,-0.09375 -0.128906,-0.09375 -0.08203,0 -0.105469,0.035156 -0.128907,0.1054687 -0.328125,1.06640628 -0.996093,1.31250003 -1.324218,1.31250003 -0.386719,0 -0.539063,-0.328125 -0.539063,-0.65625 0,-0.22265625 0.05859,-0.44531253 0.164063,-0.87890623 z m 0,0"
         style="fill:#000000;fill-opacity:1;fill-rule:nonzero;stroke:none" />
      <path
         id="path15"
         d="m 18.39943,-2.4960469 c 0,-0.7734375 -0.117188,-1.9804687 -0.65625,-3.1054687 -0.597657,-1.21875 -1.464844,-1.875 -1.558594,-1.875 -0.05859,0 -0.105469,0.046875 -0.105469,0.1054687 0,0.035156 0,0.046875 0.199219,0.234375 0.972656,0.984375 1.535156,2.5664063 1.535156,4.640625 0,1.71093753 -0.363281,3.45703128 -1.59375,4.7226563 -0.140625,0.1171875 -0.140625,0.1289062 -0.140625,0.1640625 0,0.058594 0.04687,0.1054687 0.105469,0.1054687 0.09375,0 0.996094,-0.6796875 1.582031,-1.94531247 0.503906,-1.1015625 0.632813,-2.20312503 0.632813,-3.04687503 z m 0,0"
         style="fill:#000000;fill-opacity:1;fill-rule:nonzero;stroke:none" />
    </g>
    <path
       id="path16"
       d="m -113.38724,99.21382 2.2903,-2.26736 2.2903,-2.22109 2.29028,-2.17436 2.2903,-2.12852 2.29028,-2.08225 2.29028,-2.03552 2.29029,-1.98967 2.2903,-1.94339 2.29028,-1.89713 2.29029,-1.85081 2.29029,-1.80455 2.29029,-1.75827 2.29028,-1.712 2.2903,-1.6657 2.2903,-1.61942 2.29028,-1.57358 2.29028,-1.52685 2.29029,-1.48058 2.2903,-1.43474 2.29028,-1.388 2.29028,-1.34173 2.2903,-1.29588 2.29028,-1.24918 2.29029,-1.20331 2.29028,-1.15704 2.2903,-1.11034 2.2903,-1.06447 2.29028,-1.01818 2.2903,-0.97193 2.29028,-0.92563 2.29028,-0.87934 2.29029,-0.83308 2.29029,-0.78678 2.29029,-0.74051 2.29028,-0.6942 2.29029,-0.64797 2.29029,-0.60164 2.29029,-0.55581 2.2903,-0.50911 2.29029,-0.4628 2.29029,-0.41698 2.29028,-0.37024 2.29028,-0.32441 2.2903,-0.2777 2.29029,-0.23183 2.29028,-0.18513 2.2903,-0.13928 2.29028,-0.09299 2.29028,-0.04672 2.29026,-4.3e-4 2.29031,0.04584 2.29028,0.09257 2.29029,0.13842 2.29028,0.18469 2.2903,0.23054 2.29028,0.27725 2.29029,0.32355 2.2903,0.36981 2.29028,0.41568 2.29028,0.46238 2.29028,0.50866 2.2903,0.55452 2.29028,0.60123 2.2903,0.64751 2.2903,0.69291 2.29028,0.74009 2.29029,0.78591 2.29028,0.83265 2.2903,0.87847 2.29028,0.92476 2.29029,0.97149 2.29028,1.01733 2.2903,1.06275 2.29028,1.11033 2.29028,1.15617 2.29032,1.20244 2.29028,1.24875 2.29028,1.29501 2.29029,1.34131 2.2903,1.38758 2.29028,1.43299 2.29028,1.48015 2.29029,1.52642 2.2903,1.57228 2.29028,1.619 2.29028,1.66527 2.2903,1.71155 2.2903,1.75782 2.29028,1.8024 2.29028,1.8504 2.2903,1.89623 2.29028,1.94296 2.29029,1.98882 2.2903,2.03554 2.29028,2.08136 2.29028,2.12809 2.29029,2.1722 2.2903,2.22066 2.29028,2.26649"
       style="fill:none;stroke:#000000;stroke-width:0.79701;stroke-linecap:butt;stroke-linejoin:miter;stroke-miterlimit:10;stroke-dasharray:none;stroke-opacity:1"
       transform="matrix(1.3333333,0,0,-1.3333333,151.712,159.76)" />
    <g
       id="g16"
       aria-label="g(x)"
       transform="matrix(1.3333333,0,0,1.3333333,307.804,42.446667)">
      <path
         id="path17"
         d="m 4.6880156,-3.7510156 c 0.011719,-0.070312 0.035156,-0.1171875 0.035156,-0.1875 0,-0.1640625 -0.1171875,-0.2695313 -0.2929688,-0.2695313 -0.09375,0 -0.3632812,0.070312 -0.4101562,0.4335938 -0.1757813,-0.375 -0.5273438,-0.6328125 -0.9257813,-0.6328125 -1.1367187,0 -2.36718747,1.3945312 -2.36718747,2.8359375 0,0.98437498 0.60937497,1.57031248 1.32421877,1.57031248 0.5859375,0 1.0546875,-0.46875 1.1601562,-0.57421875 l 0.011719,0.0117188 c -0.2109375,0.87890625 -0.328125,1.2890625 -0.328125,1.3125 -0.046875,0.0820313 -0.3867188,1.07812497 -1.4414063,1.07812497 -0.1875,0 -0.51562497,-0.011719 -0.79687497,-0.1054688 0.3046875,-0.09375 0.41015627,-0.3515625 0.41015627,-0.515625 0,-0.1640625 -0.10546877,-0.35156242 -0.37500002,-0.35156242 -0.22265625,0 -0.5390625,0.17578122 -0.5390625,0.57421872 0,0.4101562 0.36328125,0.609375 1.32421872,0.609375 1.2421875,0 1.9570313,-0.7734375 2.109375,-1.37109372 z m -1.2890625,2.4726562 c -0.058594,0.2578125 -0.2929687,0.51562503 -0.5039062,0.70312503 -0.2109375,0.17578125 -0.5273438,0.3515625 -0.8085938,0.3515625 -0.5039062,0 -0.65625,-0.515625 -0.65625,-0.91406253 0,-0.4804687 0.2929688,-1.6523437 0.5625,-2.15625 0.2695313,-0.4921875 0.703125,-0.890625 1.1132813,-0.890625 0.65625,0 0.796875,0.8085938 0.796875,0.8554688 0,0.046875 -0.011719,0.1054687 -0.023437,0.1523437 z m 0,0"
         style="fill:#000000;fill-opacity:1;fill-rule:nonzero;stroke:none" />
      <path
         id="path18"
         d="m 8.4028594,2.3896094 c 0,-0.035156 0,-0.046875 -0.1640625,-0.2226563 -1.2421875,-1.25390622 -1.5703125,-3.12890622 -1.5703125,-4.6640625 0,-1.7226562 0.3867187,-3.4570312 1.6054687,-4.7109375 0.1289063,-0.1171875 0.1289063,-0.1289062 0.1289063,-0.1640625 0,-0.070312 -0.035156,-0.1054687 -0.09375,-0.1054687 -0.1054688,0 -0.9960938,0.6796875 -1.5820313,1.9453125 -0.515625,1.1015625 -0.6328125,2.203125 -0.6328125,3.0351562 0,0.7851563 0.1171875,1.99218753 0.65625,3.11718753 0.5976563,1.21874997 1.453125,1.87499997 1.5585938,1.87499997 0.058594,0 0.09375,-0.035156 0.09375,-0.1054687 z m 0,0"
         style="fill:#000000;fill-opacity:1;fill-rule:nonzero;stroke:none" />
      <path
         id="path19"
         d="m 12.311063,-3.0127344 c 0.05859,-0.2578125 0.292968,-1.171875 0.984375,-1.171875 0.04687,0 0.292968,0 0.503906,0.1289063 -0.28125,0.046875 -0.480469,0.3046875 -0.480469,0.5390625 0,0.1640625 0.105469,0.3515625 0.375,0.3515625 0.222656,0 0.539063,-0.1875 0.539063,-0.5859375 0,-0.515625 -0.585938,-0.65625 -0.925782,-0.65625 -0.574218,0 -0.925781,0.5273437 -1.042968,0.7617187 -0.257813,-0.65625 -0.785157,-0.7617187 -1.078125,-0.7617187 -1.042969,0 -1.6054692,1.2890625 -1.6054692,1.5351562 0,0.1054688 0.1054687,0.1054688 0.1171875,0.1054688 0.082031,0 0.1171875,-0.023437 0.1289062,-0.1171875 0.3398435,-1.0546875 0.9960935,-1.3007813 1.3359375,-1.3007813 0.1875,0 0.539063,0.09375 0.539063,0.6679688 0,0.3046875 -0.164063,0.9726562 -0.539063,2.3671875 -0.152344,0.62109373 -0.503906,1.04296873 -0.949219,1.04296873 -0.05859,0 -0.2812497,0 -0.4921872,-0.12890625 0.2460937,-0.0585938 0.4687502,-0.26953125 0.4687502,-0.5390625 0,-0.26953128 -0.2226565,-0.35156248 -0.3750002,-0.35156248 -0.2929688,0 -0.5390625,0.25781248 -0.5390625,0.57421873 0,0.45703125 0.4921875,0.65625 0.9374997,0.65625 0.65625,0 1.007813,-0.69140625 1.042969,-0.75 0.117188,0.36328125 0.480469,0.75 1.078125,0.75 1.019531,0 1.59375,-1.27734373 1.59375,-1.53515623 0,-0.09375 -0.09375,-0.09375 -0.128906,-0.09375 -0.08203,0 -0.105469,0.035156 -0.128906,0.1054687 -0.328125,1.06640628 -0.996094,1.31250003 -1.324219,1.31250003 -0.386719,0 -0.539063,-0.328125 -0.539063,-0.65625 0,-0.22265625 0.05859,-0.44531253 0.164063,-0.87890623 z m 0,0"
         style="fill:#000000;fill-opacity:1;fill-rule:nonzero;stroke:none" />
      <path
         id="path20"
         d="m 17.561063,-2.4971094 c 0,-0.7734375 -0.117188,-1.9804687 -0.65625,-3.1054687 -0.597657,-1.21875 -1.464844,-1.875 -1.558594,-1.875 -0.05859,0 -0.105469,0.046875 -0.105469,0.1054687 0,0.035156 0,0.046875 0.199219,0.234375 0.972656,0.984375 1.535156,2.5664063 1.535156,4.640625 0,1.71093753 -0.363281,3.45703128 -1.59375,4.7226563 -0.140625,0.1171875 -0.140625,0.1289062 -0.140625,0.1640625 0,0.058594 0.04687,0.1054687 0.105469,0.1054687 0.09375,0 0.996094,-0.6796875 1.582031,-1.94531247 0.503906,-1.1015625 0.632813,-2.20312503 0.632813,-3.04687503 z m 0,0"
         style="fill:#000000;fill-opacity:1;fill-rule:nonzero;stroke:none" />
    </g>
    <path
       id="path21"
       d="m -28.3468,-113.38724 1.14494,2.28987 1.14491,2.28986 1.14495,2.28986 1.14491,2.28985 1.14494,2.28986 1.14493,2.28985 1.14492,2.28986 1.14494,2.28986 1.14491,2.28985 1.14495,2.28986 1.1449,2.28986 1.14493,2.28985 1.14495,2.28985 1.14491,2.28986 1.14494,2.28986 1.14492,2.28985 1.14494,2.28987 1.14493,2.28984 1.14491,2.28986 1.14494,2.28986 1.14492,2.28985 1.14494,2.28986 1.14493,2.28985 1.14491,2.28986 1.14491,2.28986 1.14492,2.28985 1.14494,2.28986 1.14493,2.28987 1.14491,2.28984 1.14494,2.28986 1.14492,2.28985 1.14494,2.28986 1.14492,2.28987 1.14493,2.28986 1.14493,2.28984 1.14491,2.28985 1.14495,2.28986 1.14493,2.28985 1.14492,2.28988 1.14493,2.28984 1.14491,2.28985 1.14495,2.28986 1.14491,2.28985 1.14494,2.28988 1.14493,2.28985 1.14491,2.28984 1.14495,2.28986 1.14491,2.28985 1.14494,2.28987 1.14493,2.28983 1.14493,2.28986 1.14493,2.28984 1.14491,2.28985 1.14495,2.28986 1.14492,2.28987 1.14493,2.28986 1.14493,2.28984 1.14491,2.28986 1.14494,2.28985 1.14493,2.28987 1.14493,2.28986 1.14493,2.28985 1.14491,2.28984 1.14494,2.28986 1.14493,2.28987 1.14493,2.28986 1.14493,2.28985 1.14493,2.28986 1.14492,2.28984 1.14493,2.28985 1.14493,2.28988 1.14493,2.28985 1.14493,2.28986 1.14492,2.28984 1.14492,2.28985 1.14494,2.28988 1.14493,2.28985 1.14493,2.28986 1.14493,2.28985 1.1449,2.28984 1.14495,2.28988 1.14493,2.28985 1.14492,2.28985 1.14493,2.28986 1.14493,2.28986 1.14493,2.28984 1.14493,2.28987 1.14493,2.28986 1.14492,2.28985 1.14493,2.28986 1.14493,2.28985 1.14493,2.28986 1.14492,2.28986 1.14493,2.28985 1.14493,2.28986 1.14493,2.28985 1.14493,2.28986 1.14492,2.28986 1.14493,2.28985"
       style="fill:none;stroke:#000000;stroke-width:0.79701;stroke-linecap:butt;stroke-linejoin:miter;stroke-miterlimit:10;stroke-dasharray:none;stroke-opacity:1"
       transform="matrix(1.3333333,0,0,-1.3333333,151.712,159.76)" />
    <path
       id="path22"
       d="m 2.8593047,-6.8082031 c 0,0 0,-0.1054688 -0.1289063,-0.1054688 -0.234375,0 -0.9609375,0.082031 -1.21875,0.1054688 -0.082031,0 -0.1875,0.011719 -0.1875,0.1992187 0,0.1171875 0.09375,0.1171875 0.234375,0.1171875 0.4804688,0 0.5039063,0.070312 0.5039063,0.1640625 l -0.035156,0.1992188 -1.44140621,5.74218747 c -0.0351563,0.140625 -0.0351563,0.15234375 -0.0351563,0.22265625 0,0.22265625 0.19921875,0.26953125 0.28125,0.26953125 0.1640625,0 0.32812491,-0.1171875 0.37499991,-0.2578125 l 0.1875,-0.75 0.2226563,-0.90234377 c 0.058594,-0.2226562 0.1171875,-0.4335937 0.1640625,-0.6679687 0.023437,-0.058594 0.1054687,-0.3867188 0.1171875,-0.4453125 0.023437,-0.09375 0.328125,-0.6445313 0.6679687,-0.9140625 0.2226563,-0.1640625 0.5273438,-0.3515625 0.9609375,-0.3515625 0.421875,0 0.5390625,0.3398437 0.5390625,0.6914062 0,0.5390625 -0.375,1.6289063 -0.6210937,2.2382813 -0.082031,0.2226562 -0.1289063,0.35156247 -0.1289063,0.55078122 0,0.46875 0.3515625,0.80859375 0.8203125,0.80859375 0.9375,0 1.3007813,-1.45312497 1.3007813,-1.53515627 0,-0.09375 -0.09375,-0.09375 -0.1171875,-0.09375 -0.1054688,0 -0.1054688,0.023437 -0.1523438,0.1757813 -0.1523437,0.52734372 -0.46875,1.24218747 -1.0195312,1.24218747 -0.1640625,0 -0.234375,-0.10546875 -0.234375,-0.328125 0,-0.2578125 0.09375,-0.4921875 0.1757812,-0.71484377 0.1640625,-0.421875 0.609375,-1.6054687 0.609375,-2.1914062 0,-0.6445313 -0.3984375,-1.0664063 -1.1484375,-1.0664063 -0.6210937,0 -1.1015625,0.3164063 -1.4648437,0.7734375 z m 0,0"
       style="fill:#000000;fill-opacity:1;fill-rule:nonzero;stroke:none"
       aria-label="h"
       transform="matrix(1.3333333,0,0,1.3333333,270.004,22.866667)" />
    <path
       id="path23"
       d="m 2.49069,-56.69362 c 0,1.3756 -1.11511,2.49069 -2.49069,2.49069 -1.37558,0 -2.49069,-1.11509 -2.49069,-2.49069 0,-1.37558 1.11511,-2.49069 2.49069,-2.49069 1.37558,0 2.49069,1.11511 2.49069,2.49069 z"
       style="fill:#ffffff;fill-opacity:1;fill-rule:nonzero;stroke:#000000;stroke-width:0.3985;stroke-linecap:butt;stroke-linejoin:miter;stroke-miterlimit:10;stroke-dasharray:none;stroke-opacity:1"
       transform="matrix(1.3333333,0,0,-1.3333333,151.712,159.76)" />
    <path
       id="path24"
       d="m 59.18431,56.69362 c 0,1.37558 -1.11511,2.49069 -2.49069,2.49069 -1.3756,0 -2.49069,-1.11511 -2.49069,-2.49069 0,-1.3756 1.11509,-2.49069 2.49069,-2.49069 1.37558,0 2.49069,1.11509 2.49069,2.49069 z"
       style="fill:#ffffff;fill-opacity:1;fill-rule:nonzero;stroke:#000000;stroke-width:0.3985;stroke-linecap:butt;stroke-linejoin:miter;stroke-miterlimit:10;stroke-dasharray:none;stroke-opacity:1"
       transform="matrix(1.3333333,0,0,-1.3333333,151.712,159.76)" />
    <path
       id="path25"
       d="m -25.85611,28.3468 c 0,1.37558 -1.11511,2.4907 -2.49069,2.4907 -1.37558,0 -2.4907,-1.11512 -2.4907,-2.4907 0,-1.37558 1.11512,-2.49069 2.4907,-2.49069 1.37558,0 2.49069,1.11511 2.49069,2.49069 z"
       style="fill:#ffffff;fill-opacity:1;fill-rule:nonzero;stroke:#000000;stroke-width:0.3985;stroke-linecap:butt;stroke-linejoin:miter;stroke-miterlimit:10;stroke-dasharray:none;stroke-opacity:1"
       transform="matrix(1.3333333,0,0,-1.3333333,151.712,159.76)" />
    <path
       id="path26"
       d="m 87.53111,-28.3468 c 0,1.37558 -1.11511,2.49069 -2.49069,2.49069 -1.37558,0 -2.49069,-1.11511 -2.49069,-2.49069 0,-1.37558 1.11511,-2.4907 2.49069,-2.4907 1.37558,0 2.49069,1.11512 2.49069,2.4907 z"
       style="fill:#ffffff;fill-opacity:1;fill-rule:nonzero;stroke:#000000;stroke-width:0.3985;stroke-linecap:butt;stroke-linejoin:miter;stroke-miterlimit:10;stroke-dasharray:none;stroke-opacity:1"
       transform="matrix(1.3333333,0,0,-1.3333333,151.712,159.76)" />
  </g>
</svg>
